<svg width="1080" height="1080" viewBox="0 0 1080 1080" fill="none" xmlns="http://www.w3.org/2000/svg">
<path d="M783.612 539.815H783.605C783.605 540.033 783.612 540.251 783.612 540.469C783.612 617.561 747.686 686.408 691.706 731.185C768.908 681.135 820.098 594.219 820.098 495.552C820.098 346.134 702.728 223.632 555.339 215.392C550.086 215.138 544.811 215 539.493 215C427.745 215 328.987 271.612 270.344 357.654C323.389 292.492 404.193 250.789 494.576 250.789C653.954 250.789 783.608 380.453 783.608 539.82L783.612 539.815Z" fill="#00693E"/>
<path d="M718.422 268.731C785.437 321.709 828.513 403.691 828.513 495.549C828.513 652.77 702.336 781.065 545.916 784.506C543.78 784.564 541.644 784.593 539.494 784.593C464.072 784.593 396.542 750.214 351.735 696.305C402.215 770.992 487.669 820.192 584.411 820.192C736.437 820.192 860.59 698.687 864.905 547.695C864.956 545.297 865 542.9 865 540.488C865 427.062 806.667 327.006 718.429 268.735L718.422 268.731Z" fill="#00693E"/>
<path d="M250.448 585.402C250.448 428.201 376.587 299.922 532.969 296.444C535.142 296.386 537.321 296.357 539.515 296.357C617.922 296.357 687.794 333.513 732.482 391.133C682.817 311.949 594.761 259.188 494.58 259.188C347.174 259.188 225.951 373.421 214.792 518.015C214.283 525.44 214 532.923 214 540.472C214 653.832 272.26 753.823 360.396 812.113C293.454 759.143 250.428 677.204 250.428 585.407L250.448 585.402Z" fill="#FA8334"/>
<path d="M584.396 828.605C425.018 828.605 295.365 698.948 295.365 539.573H295.394C295.677 462.736 331.64 394.172 387.54 349.583C310.163 399.598 258.85 486.621 258.85 585.42C258.85 734.977 376.44 857.564 524.019 865.599C529.148 865.839 534.306 865.977 539.494 865.977C655.369 865.977 757.272 805.101 814.967 713.666C762.162 783.435 678.465 828.603 584.411 828.603L584.396 828.605Z" fill="#2F7B9A"/>
</svg>
